# xmcd CD database file
#
# Track frame offsets:
#	183
#	13665
#	29033
#	44953
#	60598
#	67793
#	82653
#	90763
#	106948
#	117680
#	130213
#	168383
#	177520
#	190205
#	205168
#	220850
#	236535
#	251833
#
# Disc length: 3566 seconds
#
# Revision: 4
# Processed by: cddbd v1.5.2PL0 Copyright (c) Steve Scherf et al.
# Submitted via: CDex 1.51
#
DISCID=fb0dec12
DTITLE=Billie Holiday - Billie Holiday and Friends-Classic Live Recordings
DYEAR=1990
DGENRE=Blues
TTITLE0=My Man
TTITLE1=Lover Man
TTITLE2=I Cover The Waterfront
TTITLE3=Don't Explain
TTITLE4=Them There Eyes
TTITLE5=They Can't Take That Away From Me
TTITLE6=Swing Brother, Swing
TTITLE7=Do Nothin' Till You Hear From Me
TTITLE8=Lover Come Back To Me
TTITLE9=The Same Old Story
TTITLE10=Fine And Mellow
TTITLE11=What A Little Moonlight Can Do
TTITLE12=Fooling Myself
TTITLE13=Easy To Remember
TTITLE14=You've Changed
TTITLE15=Ghost Of A Chance
TTITLE16=Willow Weep For Me
TTITLE17=Stormy Weather
EXTD=YEAR: 1990
EXTT0=
EXTT1=
EXTT2=
EXTT3=
EXTT4=
EXTT5=
EXTT6=
EXTT7=
EXTT8=
EXTT9=
EXTT10=
EXTT11=
EXTT12=
EXTT13=
EXTT14=
EXTT15=
EXTT16=
EXTT17=
PLAYORDER=
